<?xml version="1.0"?>
<svg xmlns="http://www.w3.org/2000/svg" viewBox="0 0 512 512" width="512" height="512"><g id="out_line" data-name="out line"><path d="M401.308,112.517,384,54.826V24a8,8,0,0,0-8-8H136a8,8,0,0,0-8,8V54.826l-17.307,57.691A727.288,727.288,0,0,0,80,321.64V456a8,8,0,0,0,5.47,7.59l96,32A8.054,8.054,0,0,0,184,496h.009a8.176,8.176,0,0,0,1.048-.082v.012l240-32A8,8,0,0,0,432,456V321.64A727.327,727.327,0,0,0,401.308,112.517ZM134.282,427.846l30.128,45.191-60.255-20.085ZM144,110.508l1.982,6.606A711.312,711.312,0,0,1,176,321.64V461.578l-32-48ZM189,255.54l221.511-22.151A711.846,711.846,0,0,1,416,321.64V385L192,414.863V321.64Q192,288.484,189,255.54Zm219.351-38.014-220.985,22.1a727.346,727.346,0,0,0-26.054-127.107L146.752,64h63.3l22.289,74.3a8,8,0,0,0,8.459,5.661l80-8a8,8,0,0,0,6.793-10.49L307.1,64h62.949l15.934,53.114A711.629,711.629,0,0,1,408.346,217.526ZM290.234,64l19.012,57.035-63.479,6.349L226.752,64ZM288,48H224V32h64Zm80,0H304V32h64ZM144,32h64V48H144Zm-17.982,85.114L128,110.508V412.253L96,438.92V321.64A711.312,711.312,0,0,1,126.018,117.114ZM192,478.863V431l224-29.867V449Z"/><path d="M246.039,375.493a52.7,52.7,0,0,0,7.371.511,63.159,63.159,0,0,0,30.494-8.247h0a62.1,62.1,0,0,0,24.931-24.917c.275.545.549,1.09.839,1.63,10.414,19.337,28.721,30.944,45.884,30.943a34.809,34.809,0,0,0,16.633-4.112c20.545-11.066,25.929-41.106,12-66.963s-41.971-37.9-62.516-26.832a36.492,36.492,0,0,0-17.012,20.374c-13.742-14.345-39.556-16.546-61.969-4.053-25.654,14.3-37.283,42.516-25.923,62.9C222.484,366.97,232.877,373.636,246.039,375.493Zm30.075-21.712h0c-9.046,5.043-18.93,7.126-27.839,5.87-8.087-1.141-14.311-4.947-17.526-10.715a18.621,18.621,0,0,1-2.229-7.235l10.2-5.687a25.779,25.779,0,0,1,19.732-2.295,41.692,41.692,0,0,0,31.894-3.71l7.6-4.235a29.621,29.621,0,0,1-2.2,7.416C292.133,341.426,285.16,348.738,276.114,353.781Zm93.992-41.858c9.579,17.785,7.059,38.525-5.5,45.29a18.61,18.61,0,0,1-7.266,2.125L351.8,349.044a25.751,25.751,0,0,1-2.011-19.749,41.954,41.954,0,0,0-3.248-31.949l-4.09-7.6C352.679,291.526,363.538,299.728,370.106,311.923ZM318.3,308.961c1.033-6.624,3.846-11.964,8.037-15.4l6.126,11.373a25.947,25.947,0,0,1,2.009,19.754,41.614,41.614,0,0,0,.743,26.366,48.616,48.616,0,0,1-11.449-14.173C318.851,327.765,316.909,317.849,318.3,308.961ZM250.486,307.8a47.235,47.235,0,0,1,22.7-6.148c8.554,0,16.114,2.78,20.639,8.1l-11.263,6.278a25.785,25.785,0,0,1-19.732,2.3,41.626,41.626,0,0,0-26.343,1.12A48.622,48.622,0,0,1,250.486,307.8Z"/></g></svg>
